<?xml version="1.0" encoding="UTF-8"?>
<svg width="704px" height="540px" viewBox="0 0 704 540" version="1.1" xmlns="http://www.w3.org/2000/svg" xmlns:xlink="http://www.w3.org/1999/xlink">
    <!-- Generator: Sketch 52.2 (67145) - http://www.bohemiancoding.com/sketch -->
    <title>undraw_onboarding_o8mv</title>
    <desc>Created with Sketch.</desc>
    <defs>
        <linearGradient x1="50%" y1="100%" x2="50%" y2="0%" id="linearGradient-1">
            <stop stop-color="#808080" stop-opacity="0.25" offset="0%"></stop>
            <stop stop-color="#808080" stop-opacity="0.12" offset="54%"></stop>
            <stop stop-color="#808080" stop-opacity="0.1" offset="100%"></stop>
        </linearGradient>
        <linearGradient x1="50.0089747%" y1="99.9926529%" x2="50.0089747%" y2="0.00193977786%" id="linearGradient-2">
            <stop stop-color="#808080" stop-opacity="0.25" offset="0%"></stop>
            <stop stop-color="#808080" stop-opacity="0.12" offset="54%"></stop>
            <stop stop-color="#808080" stop-opacity="0.1" offset="100%"></stop>
        </linearGradient>
    </defs>
    <g id="Page-1" stroke="none" stroke-width="1" fill="none" fill-rule="evenodd">
        <g id="Home" transform="translate(-579.000000, -206.000000)">
            <g id="undraw_onboarding_o8mv" transform="translate(561.000000, 199.000000)">
                <ellipse id="Oval" fill="#6C63FF" fill-rule="nonzero" opacity="0.1" cx="541" cy="518" rx="71" ry="18"></ellipse>
                <path d="M39.7111948,379.829495 C31.6434124,382.597984 21.8512186,388.245949 23.5017268,397.2235 C24.3269809,401.773934 28.0098311,405.146682 31.507923,407.995328 C46.4497285,420.13164 62.8731924,430.315214 80.3826714,438.300728 C88.7399085,442.098923 97.6267863,445.582657 103.939364,452.587119 C110.251942,459.591582 113.177283,469.383032 115.228101,478.823025 C120.040864,501.17967 121.230299,524.165852 118.750827,546.900732 C143.945711,547.381672 171.844225,546.814409 189.673408,528.6435 C200.346283,517.760686 206.067634,501.618359 218.618887,493.195739 C226.988441,487.578604 237.304117,486.185111 247.268752,485.013589 C294.431406,479.493053 341.838352,476.151135 389.489589,474.987835 C409.455811,474.500729 429.859294,474.328084 448.501414,467.360617 C467.143533,460.393149 484.0674,445.163375 487.854947,424.513775 C488.440015,421.33217 488.821849,417.823773 490.995839,415.604049 C492.935802,413.612463 495.842667,413.137689 498.558616,412.786232 L662.309962,390.588991 C671.276902,389.355811 680.557931,388.042474 688.10839,382.967938 C695.412504,378.035218 700.339394,370.155197 705.050733,362.472485 C715.84678,344.887338 727.049296,323.627313 719.572741,303.520312 C713.592728,287.451976 697.518749,278.196959 682.15917,272.45034 C666.799591,266.703721 650.263716,262.665056 637.780209,251.399956 C618.787048,234.258753 614.574557,205.803123 609.222723,180.270129 C604.380074,157.148192 597.581075,134.480733 588.899302,112.51305 C581.237988,93.1891183 571.90769,74.1426521 558.001543,59.1040211 C544.095396,44.06539 524.960587,33.4045483 505.487055,34.1691199 C480.051985,35.1803276 457.677746,55.0283609 432.199566,52.5620008 C410.681374,50.4964241 393.172439,33.2319031 373.797445,22.4909046 C339.401594,3.40744297 298.804021,5.08456788 261.16874,11.0346617 C221.260931,17.330046 181.106778,28.34851 148.774063,53.1292636 C141.383728,58.8018919 134.313641,65.3500781 129.971819,73.8836843 C123.320517,86.9738908 123.893268,102.925075 120.561459,117.470434 C107.135684,176.046488 35.1538215,200.481951 20.3546758,258.632557 C15.0952208,279.275992 18.9874639,301.664376 28.6380096,320.741672 C39.0152716,341.280286 59.8621747,350.035864 70.5473673,367.664174 C63.4033769,374.193862 49.1708235,376.580065 39.7111948,379.829495 Z" id="Shape" fill="#6C63FF" fill-rule="nonzero" opacity="0.1"></path>
                <path d="M554.008564,523 C554.008564,523 547.695413,478.510851 566.658962,449.229351 C574.704549,437.000415 578.653257,422.431034 577.911792,407.710253 C577.509845,400.725171 576.481444,393.792625 574.839552,387" id="Shape" stroke="#535461" stroke-width="2"></path>
                <path d="M586.876901,368.047887 C586.135859,373.253433 574.560905,387 574.560905,387 C574.560905,387 567.32809,370.549492 568.05076,365.343946 C568.476377,361.926663 570.711837,359.005747 573.896893,357.705221 C577.08195,356.404695 580.72021,356.927247 583.411602,359.071789 C586.102995,361.216331 587.428065,364.648636 586.876901,368.047887 Z" id="Shape" fill="#6C63FF" fill-rule="nonzero"></path>
                <path d="M598.656038,399.797118 C595.198037,403.760492 578,409 578,409 C578,409 580.84488,391.207761 584.29675,387.268927 C586.532124,384.702194 589.966128,383.52378 593.305204,384.177582 C596.644281,384.831384 599.381146,387.218075 600.484849,390.43861 C601.588551,393.659145 600.891413,397.22425 598.656038,399.790982 L598.656038,399.797118 Z" id="Shape" fill="#6C63FF" fill-rule="nonzero"></path>
                <path d="M591.886019,447.614828 C586.810642,449.2256 569,445.263336 569,445.263336 C569,445.263336 580.62405,431.942133 585.699427,430.33724 C590.663666,429.034072 595.843029,431.615924 597.489653,436.214529 C599.136277,440.813134 596.67464,445.821205 591.886019,447.614828 Z" id="Shape" fill="#6C63FF" fill-rule="nonzero"></path>
                <path d="M576.917668,484.430895 C572.217087,486.860212 554,485.74404 554,485.74404 C554,485.74404 563.040058,470.541409 567.740639,468.112091 C572.441054,465.682572 578.305841,467.366146 580.840007,471.87246 C583.374174,476.378773 581.618083,482.001376 576.917668,484.430895 Z" id="Shape" fill="#6C63FF" fill-rule="nonzero"></path>
                <path d="M557.983543,407.484801 C561.187155,411.684695 578,418 578,418 C578,418 576.214782,399.95097 573.01117,395.732519 C569.80346,391.534122 563.839048,390.761486 559.689283,394.006789 C555.539518,397.252092 554.775833,403.286403 557.983543,407.484801 Z" id="Shape" fill="#6C63FF" fill-rule="nonzero"></path>
                <path d="M542.122309,449.133255 C546.339986,452.095146 564,453 564,453 C564,453 557.07096,436.71262 552.829182,433.768827 C550.089426,431.791454 546.497948,431.445707 543.432049,432.864178 C540.366149,434.282649 538.301676,437.245181 538.030335,440.61567 C537.758994,443.986159 539.3229,447.241484 542.122309,449.133255 Z" id="Shape" fill="#6C63FF" fill-rule="nonzero"></path>
                <path d="M532.026071,492.371313 C535.88781,496.047789 554,500 554,500 C554,500 549.707772,482.518359 545.839702,478.841884 C543.352374,476.395258 539.696481,475.434769 536.272421,476.328334 C532.848361,477.221898 530.186844,479.831018 529.30737,483.156265 C528.427896,486.481512 529.466778,490.007491 532.026071,492.383568 L532.026071,492.371313 Z" id="Shape" fill="#6C63FF" fill-rule="nonzero"></path>
                <path d="M586.876901,368.047887 C586.135859,373.253433 574.560905,387 574.560905,387 C574.560905,387 567.32809,370.549492 568.05076,365.343946 C568.476377,361.926663 570.711837,359.005747 573.896893,357.705221 C577.08195,356.404695 580.72021,356.927247 583.411602,359.071789 C586.102995,361.216331 587.428065,364.648636 586.876901,368.047887 Z" id="Shape" fill="#000000" fill-rule="nonzero" opacity="0.25"></path>
                <path d="M598.656038,399.797118 C595.198037,403.760492 578,409 578,409 C578,409 580.84488,391.207761 584.29675,387.268927 C586.532124,384.702194 589.966128,383.52378 593.305204,384.177582 C596.644281,384.831384 599.381146,387.218075 600.484849,390.43861 C601.588551,393.659145 600.891413,397.22425 598.656038,399.790982 L598.656038,399.797118 Z" id="Shape" fill="#000000" fill-rule="nonzero" opacity="0.25"></path>
                <path d="M591.886019,447.614828 C586.810642,449.2256 569,445.263336 569,445.263336 C569,445.263336 580.62405,431.942133 585.699427,430.33724 C590.663666,429.034072 595.843029,431.615924 597.489653,436.214529 C599.136277,440.813134 596.67464,445.821205 591.886019,447.614828 Z" id="Shape" fill="#000000" fill-rule="nonzero" opacity="0.25"></path>
                <path d="M576.917668,484.430895 C572.217087,486.860212 554,485.74404 554,485.74404 C554,485.74404 563.040058,470.541409 567.740639,468.112091 C572.441054,465.682572 578.305841,467.366146 580.840007,471.87246 C583.374174,476.378773 581.618083,482.001376 576.917668,484.430895 Z" id="Shape" fill="#000000" fill-rule="nonzero" opacity="0.25"></path>
                <path d="M557.983543,407.484801 C561.187155,411.684695 578,418 578,418 C578,418 576.214782,399.95097 573.01117,395.732519 C569.80346,391.534122 563.839048,390.761486 559.689283,394.006789 C555.539518,397.252092 554.775833,403.286403 557.983543,407.484801 Z" id="Shape" fill="#000000" fill-rule="nonzero" opacity="0.25"></path>
                <path d="M542.122309,449.133255 C546.339986,452.095146 564,453 564,453 C564,453 557.07096,436.71262 552.829182,433.768827 C550.089426,431.791454 546.497948,431.445707 543.432049,432.864178 C540.366149,434.282649 538.301676,437.245181 538.030335,440.61567 C537.758994,443.986159 539.3229,447.241484 542.122309,449.133255 Z" id="Shape" fill="#000000" fill-rule="nonzero" opacity="0.25"></path>
                <path d="M532.026071,492.371313 C535.88781,496.047789 554,500 554,500 C554,500 549.707772,482.518359 545.839702,478.841884 C543.352374,476.395258 539.696481,475.434769 536.272421,476.328334 C532.848361,477.221898 530.186844,479.831018 529.30737,483.156265 C528.427896,486.481512 529.466778,490.007491 532.026071,492.383568 L532.026071,492.371313 Z" id="Shape" fill="#000000" fill-rule="nonzero" opacity="0.25"></path>
                <path d="M555,521 C555,521 530.788052,482.938372 536.753766,448.278625 C539.356356,433.768005 537.127398,418.814284 530.401558,405.662666 C527.155985,399.442461 523.339438,393.530076 519,388" id="Shape" stroke="#535461" stroke-width="2"></path>
                <path d="M522.745245,367.126786 C524.173242,372.315821 519.132167,390 519.132167,390 C519.132167,390 505.775471,377.611651 504.359785,372.410053 C503.431796,369.054694 504.328182,365.448927 506.711285,362.951008 C509.094388,360.453089 512.602156,359.442512 515.913248,360.299952 C519.22434,361.157391 521.835721,363.752582 522.76371,367.10794 L522.745245,367.126786 Z" id="Shape" fill="#6C63FF" fill-rule="nonzero"></path>
                <path d="M545.590128,390.28683 C544.033785,395.287957 530.389633,407 530.389633,407 C530.389633,407 525.775966,389.694511 527.313855,384.687277 C528.871568,379.682543 534.221495,376.878907 539.263253,378.425181 C544.30501,379.971455 547.129387,385.282096 545.571674,390.28683 L545.590128,390.28683 Z" id="Shape" fill="#6C63FF" fill-rule="nonzero"></path>
                <path d="M558.861838,438.973725 C554.931061,442.622347 537,446 537,446 C537,446 541.876154,428.198002 545.806931,424.574587 C549.739985,420.920301 555.852187,421.188326 559.458918,425.173239 C563.065648,429.158151 562.801111,435.350946 558.868058,439.005233 L558.861838,438.973725 Z" id="Shape" fill="#6C63FF" fill-rule="nonzero"></path>
                <path d="M559.891304,477.598325 C556.703595,481.76391 540,488 540,488 C540,488 541.821548,470.078154 544.978898,465.881849 C547.008497,463.094548 550.370991,461.638426 553.764975,462.077053 C557.158959,462.51568 560.051828,464.780224 561.323936,467.994226 C562.596045,471.208228 562.047766,474.867326 559.891304,477.555317 L559.891304,477.598325 Z" id="Shape" fill="#6C63FF" fill-rule="nonzero"></path>
                <path d="M512.067186,413.408549 C516.76592,415.848088 535,414.756559 535,414.756559 C535,414.756559 525.976436,399.552682 521.290165,397.119107 C518.250033,395.542195 514.561891,395.637443 511.615025,397.368973 C508.668159,399.100503 506.910269,402.205253 507.003535,405.513694 C507.096801,408.822136 509.027054,411.831637 512.067186,413.408549 Z" id="Shape" fill="#6C63FF" fill-rule="nonzero"></path>
                <path d="M513.956573,458.893375 C519.141088,459.898087 536,453.471604 536,453.471604 C536,453.471604 522.792416,441.219014 517.6079,440.220428 C514.218518,439.482041 510.693063,440.628281 508.395955,443.215531 C506.098847,445.802782 505.390544,449.425056 506.545172,452.680465 C507.6998,455.935874 510.536178,458.313583 513.956573,458.893375 Z" id="Shape" fill="#6C63FF" fill-rule="nonzero"></path>
                <path d="M521.632522,503.458756 C526.497662,505.317596 544,501.791997 544,501.791997 C544,501.791997 533.199391,487.342618 528.322089,485.458994 C523.539459,483.90139 518.396693,486.428826 516.615966,491.212021 C514.835239,495.995216 517.039126,501.361874 521.632522,503.427776 L521.632522,503.458756 Z" id="Shape" fill="#6C63FF" fill-rule="nonzero"></path>
                <polygon id="Shape" fill="url(#linearGradient-1)" fill-rule="nonzero" points="194 43 194 59.8830267 194 478 507 478 507 59.8830267 507 43"></polygon>
                <polygon id="Rectangle-path" fill="#F6F7F9" fill-rule="nonzero" points="197 47 504 47 504 64 197 64"></polygon>
                <g id="Group" opacity="0.2" transform="translate(197.000000, 47.000000)" fill="#6C63FF" fill-rule="nonzero">
                    <polygon id="Rectangle-path" points="0.0492184369 0.0125925926 306.741603 0.0125925926 306.741603 16.9433333 0.0492184369 16.9433333"></polygon>
                </g>
                <polygon id="Rectangle-path" fill="#F6F7F9" fill-rule="nonzero" points="197 63 504 63 504 474 197 474"></polygon>
                <circle id="Oval" fill="#F6F7F9" fill-rule="nonzero" cx="204.5" cy="54.5" r="2.5"></circle>
                <circle id="Oval" fill="#F6F7F9" fill-rule="nonzero" cx="212.5" cy="54.5" r="2.5"></circle>
                <circle id="Oval" fill="#F6F7F9" fill-rule="nonzero" cx="219.5" cy="54.5" r="2.5"></circle>
                <g id="Group" opacity="0.2" transform="translate(251.000000, 88.000000)" fill="#6C63FF" fill-rule="nonzero">
                    <polygon id="Rectangle-path" points="0.0308411215 0.63 197.753271 0.63 197.753271 8.69785714 0.0308411215 8.69785714"></polygon>
                </g>
                <polygon id="Rectangle-path" fill="#6C63FF" fill-rule="nonzero" points="422 89 448 89 448 97 422 97"></polygon>
                <g id="Group" opacity="0.2" transform="translate(226.000000, 133.000000)" fill="#6C63FF" fill-rule="nonzero">
                    <polygon id="Rectangle-path" points="0.375037037 0.291724138 248.415926 0.291724138 248.415926 89.9751724 0.375037037 89.9751724"></polygon>
                </g>
                <polygon id="Rectangle-path" fill="#F6F7F9" fill-rule="nonzero" points="296 165 439 165 439 173 296 173"></polygon>
                <polygon id="Rectangle-path" fill="#F6F7F9" fill-rule="nonzero" points="296 182 371 182 371 190 296 190"></polygon>
                <polygon id="Rectangle-path" fill="#6C63FF" fill-rule="nonzero" points="422 205 448 205 448 213 422 213"></polygon>
                <circle id="Oval" fill="#F6F7F9" fill-rule="nonzero" cx="256" cy="177" r="14"></circle>
                <g id="Group" opacity="0.2" transform="translate(226.000000, 246.000000)" fill="#6C63FF" fill-rule="nonzero">
                    <polygon id="Rectangle-path" points="0.375037037 0.285517241 248.415926 0.285517241 248.415926 89.9689655 0.375037037 89.9689655"></polygon>
                </g>
                <polygon id="Rectangle-path" fill="#F6F7F9" fill-rule="nonzero" points="296 279 439 279 439 287 296 287"></polygon>
                <polygon id="Rectangle-path" fill="#F6F7F9" fill-rule="nonzero" points="296 295 371 295 371 303 296 303"></polygon>
                <polygon id="Rectangle-path" fill="#6C63FF" fill-rule="nonzero" points="422 319 448 319 448 327 422 327"></polygon>
                <circle id="Oval" fill="#F6F7F9" fill-rule="nonzero" cx="256" cy="291" r="14"></circle>
                <g id="Group" opacity="0.2" transform="translate(226.000000, 360.000000)" fill="#6C63FF" fill-rule="nonzero">
                    <polygon id="Rectangle-path" points="0.375037037 0.279310345 248.415926 0.279310345 248.415926 89.9627586 0.375037037 89.9627586"></polygon>
                </g>
                <polygon id="Rectangle-path" fill="#F6F7F9" fill-rule="nonzero" points="296 393 439 393 439 401 296 401"></polygon>
                <polygon id="Rectangle-path" fill="#F6F7F9" fill-rule="nonzero" points="296 409 371 409 371 417 296 417"></polygon>
                <polygon id="Rectangle-path" fill="#6C63FF" fill-rule="nonzero" points="422 433 448 433 448 441 422 441"></polygon>
                <circle id="Oval" fill="#F6F7F9" fill-rule="nonzero" cx="256" cy="405" r="14"></circle>
                <path d="M119.274267,286.573003 C116.892514,297.423807 112.596742,310.794759 112.596742,310.794759 C116.843278,315.75495 135.368026,316.642239 135.368026,316.642239 L135.398798,316.605269 L135.688055,316.605269 C135.817297,317.289221 135.965003,317.948526 136.14348,318.577022 C136.110657,319.197303 136.079885,319.825799 136.051164,320.462511 C135.787009,321.204325 135.69647,321.996951 135.786525,322.779321 C135.822841,322.954041 135.868032,323.126794 135.921922,323.296906 C135.478805,333.118702 135.164931,343.593641 135.435724,349.644458 C135.437418,351.358426 135.612689,353.067806 135.958848,354.74637 C136.279332,356.027319 136.460911,357.339136 136.500436,358.659068 C136.802001,367.513472 134.654115,382.387885 134.654115,382.387885 C134.654115,382.387885 134.709505,382.591222 134.740277,382.695971 C134.703351,382.948602 134.678733,383.096484 134.678733,383.096484 C134.86547,383.695827 134.971037,384.317547 134.992607,384.945002 C135.152622,392.413018 130.875313,408.661496 130.875313,408.661496 C130.875313,408.661496 127.41654,433.647306 127.908892,443.167177 C127.924903,443.92744 127.980367,444.686356 128.075061,445.440855 C129.133618,453.358677 130.536821,475.466959 130.536821,475.466959 C130.782247,475.831552 131.051582,476.179428 131.343048,476.508291 C131.21996,477.00123 131.072254,477.50033 130.912239,477.993268 C129.256555,482.97643 128.557023,488.228117 128.850515,493.471531 C128.893596,494.087704 128.942831,494.759332 129.004375,495.437122 C129.712131,503.595251 149.424678,498.517986 150.723257,497.56908 C151.166374,497.242509 150.852499,494.284879 150.243214,490.532386 L170.552737,495.554195 C170.552737,495.554195 184.954036,497.686153 191.803885,495.554195 C198.653733,493.422237 198.413712,487.543948 188.615905,486.576556 C181.753748,485.911089 176.307103,479.515215 173.617629,475.738075 C174.657723,472.897518 182.455349,451.33763 183.889325,437.991325 C184.817183,429.369105 186.33681,420.821064 188.437427,412.407827 L189.969873,392.548576 L192.690119,380.841291 L195.933488,365.363028 C199.595357,354.013124 200.715458,335.041161 200.715458,335.041161 L203.546482,316.426579 C203.940907,314.403507 204.161222,312.350283 204.205003,310.289497 C206.859708,310.834394 209.479903,311.536002 212.051865,312.390646 C216.483034,308.940078 210.205544,275.69139 210.205544,275.69139 C210.205544,275.69139 207.183733,254.692219 204.623502,235.547727 C210.488647,234.6666 216.846143,236.046827 216.846143,236.046827 L254.03719,236.866337 C254.809694,235.851936 255.477768,234.761927 256.031216,233.612944 L257.625205,233.612944 C257.822749,233.337636 257.97831,233.03445 258.086785,232.713332 L258.745306,232.836567 C261.162813,233.395998 263.539738,234.118571 265.859794,234.999333 C265.859794,234.999333 277.590083,236.416531 275.817615,224.099235 C274.500573,214.918259 264.062709,218.251755 258.843777,220.531594 L258.185256,220.833519 C258.136021,220.488462 258.105249,220.291287 258.105249,220.291287 L256.425097,220.599373 C256.321014,220.342984 256.203928,220.092081 256.074296,219.847642 C256.074296,219.847642 237.832651,219.139044 223.043625,216.920821 C212.525754,215.343419 204.580422,209.32341 200.8447,205.983753 C198.253697,192.816138 190.726865,188.817177 190.726865,188.817177 C186.548026,188.607678 182.781533,186.765321 180.467478,185.341962 C179.630983,184.842022 178.829094,184.286207 178.067261,183.678295 L177.661071,183.91244 L177.611836,183.869308 C180.116677,181.540175 182.713834,179.402055 184.997117,177.608992 L186.024902,176.814129 C193.314388,176.099544 199.817969,171.924449 203.508418,165.590258 C207.198867,159.256066 207.627396,151.533069 204.660429,144.828595 C204.561958,144.606773 204.445025,144.384951 204.3404,144.16929 C206.693865,143.908634 208.561879,142.066424 208.85773,139.71436 C209.085443,137.132596 207.306821,134.384465 208.470003,132.067655 C208.683666,131.723927 208.868915,131.363293 209.023899,130.989352 C209.120348,130.636482 209.149578,130.268586 209.110061,129.904888 C208.93631,127.696997 207.813463,125.673465 206.03286,124.359332 C203.392622,122.443035 201.047795,123.416588 198.161381,123.250221 C194.825696,123.059207 191.520782,122.252021 188.234332,121.709789 C184.461684,121.093616 180.59672,120.674618 176.830227,121.333923 C173.063733,121.993228 169.377247,123.841747 167.192434,126.984229 C166.256965,128.327486 165.623062,129.861756 164.730674,131.248145 C163.727507,132.850194 162.428928,134.236583 161.278055,135.727722 C159.339419,138.235545 157.770046,141.242469 157.923906,144.409598 C158.010068,146.202661 158.643971,147.927945 158.767059,149.721008 C158.772912,151.391726 158.649454,153.060387 158.397795,154.712008 C158.207343,156.840059 158.329682,158.984572 158.760905,161.077074 C158.847521,161.732313 159.097244,162.355246 159.487124,162.888622 C159.926408,163.359908 160.476495,163.713653 161.087268,163.917631 C161.726057,164.169962 162.382173,164.375886 163.050522,164.533804 C162.302685,166.275729 161.381,167.937563 160.299505,169.493995 L159.302492,168.458825 L156.606864,172.673447 L156.50224,172.390008 C156.372997,172.654962 156.225292,172.907593 156.071431,173.160224 L155.794483,172.390008 C154.60053,174.78692 152.366482,176.789482 149.757016,178.440825 C142.704072,182.87727 132.863185,184.713465 132.863185,184.713465 C117.009447,187.017952 119.938942,203.414312 119.938942,203.414312 C119.938942,203.414312 113.212182,232.6702 111.32278,250.754874 C109.433379,268.839548 116.455551,280.36198 116.455551,280.36198 L119.274267,286.573003 Z M194.881085,233.101521 C195.496525,235.116406 196.038113,237.026542 196.499693,238.696371 L196.204282,238.813444 C195.86579,237.26685 195.404209,235.282773 194.899549,233.101521 L194.881085,233.101521 Z M177.439512,184.011028 L177.353351,184.066484 L177.433358,183.986381 L177.439512,184.011028 Z M150.095508,489.712876 C149.320053,485.073094 148.163026,479.472083 147.449115,476.126264 C147.953776,474.481083 148.624606,471.967097 149.412369,468.226928 C151.184837,459.840815 152.243394,430.16593 152.243394,430.16593 L156.379152,405.235575 C160.157954,395.660249 160.982644,384.285697 160.982644,384.285697 C162.502781,380.26825 166.016944,355.676791 166.576994,351.727123 C166.41698,354.456769 166.035407,361.370228 165.832312,369.047742 C165.832312,369.115521 165.832312,369.189462 165.832312,369.257241 C165.678452,375.055428 165.635371,381.272612 165.832312,386.429979 C165.887701,387.877985 165.961554,389.252051 166.060025,390.521367 C166.090797,390.847938 166.10926,391.186834 166.121569,391.519567 C166.564686,404.890518 160.582608,421.712038 160.582608,421.712038 C160.582608,421.712038 157.917752,434.183377 158.311634,441.152292 C158.306983,442.403889 158.485298,443.649431 158.840912,444.849329 C159.017191,445.404319 159.11861,445.980404 159.142478,446.56229 C159.253257,453.22928 155.320595,467.222566 154.317427,470.654649 C152.12646,475.177358 150.495544,486.705952 150.095508,489.712876 Z" id="Shape" fill="url(#linearGradient-2)" fill-rule="nonzero"></path>
                <path d="M172.07063,471.963063 C172.07063,471.963063 179.111644,484.344935 189.014246,485.270227 C198.916849,486.195519 199.155315,491.966421 192.233534,494.066591 C185.311752,496.166761 170.759068,494.066591 170.759068,494.066591 L150,489.093145 C150,489.093145 152.510165,469.187186 155.84241,468.146232 C159.174655,467.105278 172.07063,471.963063 172.07063,471.963063 Z" id="Shape" fill="#4C4C78" fill-rule="nonzero"></path>
                <path d="M146.921595,472.446438 C146.921595,472.446438 152.081956,495.646981 150.793407,496.590042 C149.504858,497.533104 129.930012,502.562764 129.214837,494.475859 C129.153184,493.804005 129.103861,493.150642 129.06687,492.528098 C128.769792,487.328676 129.464425,482.120202 131.113751,477.180237 C131.677055,475.667092 131.946971,474.060541 131.909075,472.446438 C131.569984,469.191952 146.921595,472.446438 146.921595,472.446438 Z" id="Shape" fill="#4C4C78" fill-rule="nonzero"></path>
                <path d="M153,178.15694 C153,178.15694 168.811977,216.989407 166.002054,204.538362 C164.153421,196.266431 176.175699,185.288554 184.488387,178.834968 C188.721757,175.543454 192,173.429242 192,173.429242 C192,173.429242 162.298625,138.800543 164.406067,153.741797 C164.982924,157.833263 164.422213,162.004615 162.785432,165.798354 C160.619515,170.678499 157.252991,174.930275 153,178.15694 Z" id="Shape" fill="#FFB9B9" fill-rule="nonzero"></path>
                <path d="M254,234.562058 C255.225217,234.393325 256.472097,234.471389 257.666285,234.791595 C260.097357,235.346606 262.486872,236.067955 264.817727,236.950477 C264.817727,236.950477 276.622291,238.364918 274.811009,226.075416 C273.486899,216.906368 262.993953,220.231544 257.741235,222.5145 C255.954936,223.289961 254.768234,223.947552 254.768234,223.947552 L254,234.562058 Z" id="Shape" fill="#FFB9B9" fill-rule="nonzero"></path>
                <path d="M254,233.775644 C255.135758,233.610719 256.291598,233.687021 257.398593,234 C258.585496,230.852956 257.682292,223.400707 257.49123,222 C255.835356,222.757959 254.7353,223.400707 254.7353,223.400707 L254,233.775644 Z" id="Shape" fill="#000000" fill-rule="nonzero" opacity="0.1"></path>
                <path d="M253.822601,221.551772 L256.496055,221 C256.496055,221 257.870665,231.307836 256.079343,234 L253,234 L253.822601,221.551772 Z" id="Shape" fill="#CBCDDA" fill-rule="nonzero"></path>
                <path d="M193.441439,241.0909 C193.441439,241.0909 202.578705,235.524222 203.666475,242.556791 C204.754245,249.58936 206.198561,261.66905 206.198561,261.66905 L208.724604,277.014524 L212,307.767323 L211.540719,313 C211.540719,313 201.829353,309.672364 199.53295,310.822811 C197.236547,311.973257 195.393381,297.92049 195.393381,297.92049 L191.604317,283.335795 L191,252.40981 L193.441439,241.0909 Z" id="Shape" fill="#4C4C78" fill-rule="nonzero"></path>
                <path d="M193.441439,241.0909 C193.441439,241.0909 202.578705,235.524222 203.666475,242.556791 C204.754245,249.58936 206.198561,261.66905 206.198561,261.66905 L208.724604,277.014524 L212,307.767323 L211.540719,313 C211.540719,313 201.829353,309.672364 199.53295,310.822811 C197.236547,311.973257 195.393381,297.92049 195.393381,297.92049 L191.604317,283.335795 L191,252.40981 L193.441439,241.0909 Z" id="Shape" fill="#000000" fill-rule="nonzero" opacity="0.1"></path>
                <path d="M198,205 C198,205 207.724776,215.608663 222.482386,217.750797 C237.239997,219.892931 255.449933,220.570973 255.449933,220.570973 C255.449933,220.570973 260.042705,228.52747 253.416966,237 L216.29671,236.20795 C216.29671,236.20795 208.078066,234.479842 201.712645,236.20795 L198,205 Z" id="Shape" fill="#4C4C78" fill-rule="nonzero"></path>
                <path d="M198,205 C198,205 207.724776,215.608663 222.482386,217.750797 C237.239997,219.892931 255.449933,220.570973 255.449933,220.570973 C255.449933,220.570973 260.042705,228.52747 253.416966,237 L216.29671,236.20795 C216.29671,236.20795 208.078066,234.479842 201.712645,236.20795 L198,205 Z" id="Shape" fill="#000000" fill-rule="nonzero" opacity="0.05"></path>
                <g id="Group"></g>
                <path d="M164.052168,165.523022 C167.695912,173.278174 174.017965,179 183.211413,179 C183.616273,179 184.008676,179 184.407308,179 C188.686372,175.689648 192,173.563335 192,173.563335 C192,173.563335 161.978036,138.736445 164.108225,153.763213 C164.762231,158.331995 165.515894,162.070089 164.052168,165.523022 Z" id="Shape" fill="#000000" fill-rule="nonzero" opacity="0.1"></path>
                <path d="M161.000042,155.993775 C160.996585,168.696305 171.291223,178.996542 183.993761,178.999999 C196.696298,179.003456 206.996542,168.708824 206.999999,156.006295 C207.003457,143.303765 196.708819,133.003527 184.006282,133.000069 C177.902233,132.985073 172.043689,135.4024 167.726287,139.717449 C163.408885,144.032499 160.988368,149.889723 161.000042,155.993775 Z" id="Shape" fill="#FFB9B9" fill-rule="nonzero"></path>
                <path d="M147,294.502184 C147,294.502184 197.780781,298.950729 199.677159,292.514798 C201.573537,286.078868 194.496206,268.653863 194.496206,268.653863 L196.764422,244.319155 L196.851185,243.383915 C196.851185,243.383915 190.505136,217.061821 190.715845,214.982142 C190.932751,213.093203 180.471687,190.985844 178.321219,186.488076 L177.930788,185.675893 L177.527963,185.909703 L177.354438,186.014303 L174.875513,187.454081 L165.040378,185.152897 L153.20351,179 L152.081797,246.312694 L147,294.502184 Z" id="Shape" fill="#CBCDDA" fill-rule="nonzero"></path>
                <path d="M173.096416,186.116097 C173.096416,186.116097 176.447099,185.176145 177.755119,188.64531 C178.2596,190.127526 178.858175,191.573588 179.546928,192.974037 L180.854949,201.013101 L183.244027,213.708639 L185,269.982089 L184.211604,280 L179.83959,271.960936 L179.045222,219.397823 L179.045222,212.842894 C178.787294,207.186828 177.553379,201.62426 175.401877,196.418467 L174.804608,194.940516 L171,189.888273 L173.096416,186.116097 Z" id="Shape" fill="#000000" fill-rule="nonzero" opacity="0.1"></path>
                <path d="M173.105667,185.116127 C173.105667,185.116127 176.452066,184.175928 177.758415,187.646007 C178.262251,189.128612 178.860061,190.575055 179.547934,191.975873 L180.854282,200.017053 L183.240307,212.715932 L185,269.004194 L184.200682,279 L179.834256,270.95882 L179.040903,218.381872 L179.040903,211.825217 C178.785325,206.168025 177.555006,200.603984 175.408181,195.396467 L174.811674,193.918127 L171,188.883111 L173.105667,185.116127 Z" id="Shape" fill="#4C4C78" fill-rule="nonzero"></path>
                <path d="M159.722518,171 C159.722518,171 171.755319,183.334855 176,184.812155 C176,184.812155 173.87766,194.174393 171.755319,196 C171.755319,196 159.126773,183.539034 156.861702,182.530147 L155,178.092241 L159.722518,171 Z" id="Shape" fill="#000000" fill-rule="nonzero" opacity="0.1"></path>
                <path d="M159.722518,170 C159.722518,170 171.755319,182.334855 176,183.812155 C176,183.812155 173.87766,193.174393 171.755319,195 C171.755319,195 159.126773,182.539034 156.861702,181.530147 L155,177.092241 L159.722518,170 Z" id="Shape" fill="#CBCDDA" fill-rule="nonzero"></path>
                <path d="M177,185 L177.120063,185.327881 L180.854028,195.634476 L187.517536,215.096991 C187.517536,215.096991 187.58357,215.294956 187.69763,215.666142 C188.802212,219.204781 194.74534,238.413652 195.915956,244 L196,243.059662 C196,243.059662 189.858768,216.569361 190.062875,214.478347 C190.272986,212.579113 180.139652,190.351264 178.056556,185.828982 C177.726382,185.593897 177.45624,185.395932 177.288152,185.247457 L177,185 Z" id="Shape" fill="#000000" fill-rule="nonzero" opacity="0.1"></path>
                <path d="M177,185 L180.916512,195.554203 L187.694151,214.847361 C187.694151,214.847361 187.761257,215.043604 187.877166,215.41156 C189.066761,219.152446 195.8444,240.493892 196.417846,244.400357 C197.027894,248.693177 205.568574,271.862137 205.568574,271.862137 L210.448963,312 C214.798609,308.590275 208.618817,275.817664 208.618817,275.817664 C208.618817,275.817664 201.658163,227.198416 200.011032,211.026752 C198.363901,194.855087 189.43889,190.07166 189.43889,190.07166 C185.333263,189.863151 181.636369,188.047902 179.360888,186.643537 C178.538405,186.149139 177.749687,185.600072 177,185 Z" id="Shape" fill="#4C4C78" fill-rule="nonzero"></path>
                <path d="M128.183412,443.789615 C129.240542,451.633788 130.656232,473.528512 130.656232,473.528512 C135.60187,480.917058 146.52555,476.921086 146.52555,476.921086 C146.52555,476.921086 147.693957,474.692208 149.455841,466.380094 C151.217725,458.06798 152.281037,428.686196 152.281037,428.686196 L156.398282,403.989982 C160.156967,394.508015 160.97918,383.271269 160.97918,383.271269 C162.623605,378.961284 166.62339,350.490754 166.62339,350.490754 C166.62339,350.490754 164.972783,376.012023 166.005185,389.47149 C167.037587,402.930958 160.602075,421.082152 160.602075,421.082152 C160.602075,421.082152 156.954666,438.057335 158.840191,443.321674 C160.725716,448.586013 154.135652,470.363751 154.135652,470.363751 C154.722947,476.687115 173.411279,474.107281 173.411279,474.107281 C173.411279,474.107281 182.226881,450.58092 183.753847,436.413384 C184.678348,427.872216 186.192411,419.404608 188.285288,411.070672 L189.806072,391.404826 L192.51381,379.817124 L195.747021,364.485891 C199.388248,353.242988 200.507198,334.45761 200.507198,334.45761 L203.326212,316.023189 C205.180827,306.904492 202.788374,296.215729 201.181042,290.600434 C200.488652,288.180685 199.944632,286.696819 199.944632,286.696819 C198.324935,287.842044 189.051862,289.159668 184.254593,290.274107 C181.621051,290.874264 178.912649,291.081763 176.21793,290.889819 C164.094766,289.936025 152.10115,287.751219 140.423868,284.369427 L139.187459,284 L138.940177,286.105736 L138.359064,291.129947 L137.332844,300.039301 C137.332844,300.039301 134.155271,347.566122 136.034614,354.006471 C137.913957,360.44682 134.742566,382.076787 134.742566,382.076787 C136.50445,387.211827 130.98388,408.084468 130.98388,408.084468 C130.98388,408.084468 127.126282,435.9516 128.183412,443.789615 Z" id="Shape" fill="#000000" fill-rule="nonzero" opacity="0.1"></path>
                <path d="M128.182674,443.789615 C129.239814,451.633788 130.655517,473.528512 130.655517,473.528512 C135.601204,480.917058 146.524991,476.921086 146.524991,476.921086 C146.524991,476.921086 147.693409,474.692208 149.45531,466.380094 C151.217211,458.06798 152.280534,428.686196 152.280534,428.686196 L156.397818,403.989982 C160.15654,394.508015 160.978761,383.271269 160.978761,383.271269 C162.623202,378.961284 166.623026,350.490754 166.623026,350.490754 C166.623026,350.490754 164.972403,376.012023 166.004815,389.47149 C167.037227,402.930958 160.601652,421.082152 160.601652,421.082152 C160.601652,421.082152 156.954208,438.057335 158.839751,443.321674 C160.725294,448.586013 154.135166,470.363751 154.135166,470.363751 C154.722467,476.687115 173.410982,474.107281 173.410982,474.107281 C173.410982,474.107281 182.226669,450.58092 183.75365,436.413384 C184.678159,427.872216 186.192237,419.404608 188.285135,411.070672 L189.805934,391.404826 L192.513698,379.817124 L195.746941,364.485891 C199.388203,353.242988 200.507164,334.45761 200.507164,334.45761 L203.326206,316.017031 C205.180839,306.904492 202.788362,296.215729 201.181014,290.600434 C200.488618,288.180685 199.944592,286.696819 199.944592,286.696819 C198.32488,287.842044 189.051717,289.159668 184.2544,290.274107 C181.620833,290.874264 178.912405,291.081763 176.217659,290.889819 C164.094377,289.936025 152.100644,287.751219 140.423249,284.369427 L139.186827,284 L138.939543,286.105736 L138.358425,291.129947 L137.332195,300.039301 C137.332195,300.039301 134.154591,347.566122 136.033952,354.006471 C137.913313,360.44682 134.760438,382.082944 134.760438,382.082944 C136.522339,387.217984 131.001715,408.090625 131.001715,408.090625 C131.001715,408.090625 127.125533,435.9516 128.182674,443.789615 Z" id="Shape" fill="#474463" fill-rule="nonzero"></path>
                <path d="M161.000001,155.572633 C160.99871,159.507292 162.025223,163.373498 163.977112,166.785468 C167.473842,167.399198 171.19676,166.724095 173.84376,164.398061 C175.634917,162.814639 176.790305,160.648175 178.330822,158.813124 C179.326496,157.680548 180.398848,156.618317 181.540234,155.634006 C182.281862,154.890129 183.136035,154.26872 184.071084,153.792818 C185.028089,153.301104 186.159184,153.287477 187.127666,153.755994 C188.350299,154.449508 188.790447,155.989969 189.487348,157.223565 C190.026416,158.277422 190.947552,159.083577 192.06099,159.475952 C193.198823,159.83498 194.437033,159.409841 195.117572,158.426474 C195.875604,157.113094 195.319306,155.063237 196.596958,154.265389 C196.93266,154.099065 197.279993,153.957532 197.636196,153.841916 C199.280637,153.093166 199.470145,150.877603 199.604635,149.073239 C199.677993,148.183331 199.867501,147.176815 200.613307,146.698106 C201.359113,146.219397 202.331106,146.458752 203.217515,146.483301 C203.479998,146.488978 203.74233,146.466344 204,146.415791 C199.70057,136.674731 189.196426,131.284395 178.813901,133.49122 C168.431376,135.698045 161.00444,144.899666 161.006114,155.554221 L161.000001,155.572633 Z" id="Shape" fill="#000000" fill-rule="nonzero" opacity="0.1"></path>
                <path d="M205.918657,126.40901 C207.69013,127.713731 208.808147,129.729149 208.980964,131.929351 C209.022809,132.293835 208.995519,132.662986 208.90054,133.017256 C208.744278,133.391191 208.560226,133.752776 208.349944,134.098945 C207.186885,136.41152 208.968592,139.159258 208.733505,141.745363 C208.424743,144.266509 206.311913,146.172006 203.784322,146.208883 C202.887282,146.208883 201.928378,145.941569 201.148881,146.426464 C200.369385,146.911358 200.20235,147.930881 200.128112,148.832288 C199.985823,150.666185 199.800229,152.910378 198.136065,153.662586 C197.776457,153.784512 197.425144,153.929874 197.084364,154.097748 C195.79139,154.905906 196.360546,156.988468 195.587236,158.306387 C194.901507,159.306455 193.646866,159.740153 192.493996,159.375642 C191.368492,158.975978 190.437034,158.16004 189.889488,157.09415 C189.178043,155.85083 188.751176,154.284246 187.501507,153.581771 C186.521732,153.108141 185.37842,153.11963 184.408267,153.612854 C183.462221,154.095262 182.597856,154.724662 181.847064,155.477834 C180.693478,156.476488 179.608372,157.552339 178.599162,158.698033 C177.04017,160.563013 175.870925,162.751256 174.0521,164.355139 C170.637163,167.37019 165.391028,167.668587 161.184222,165.952805 C160.576983,165.746636 160.029062,165.394515 159.58811,164.927066 C159.191274,164.385806 158.936013,163.753097 158.845733,163.086953 C158.418387,160.993918 158.295439,158.849659 158.48073,156.721154 C158.732513,155.075563 158.856616,153.412794 158.851919,151.747873 C158.734376,149.957493 158.097169,148.229278 158.010558,146.438897 C157.855896,143.274647 159.421075,140.265813 161.351257,137.735656 C162.501942,136.243672 163.794916,134.85737 164.79094,133.259704 C165.657047,131.873402 166.288068,130.337902 167.222226,128.995116 C169.399867,125.886816 173.074636,124.021836 176.823643,123.344226 C180.57265,122.666617 184.426826,123.095562 188.188206,123.717222 C191.460854,124.264283 194.752061,125.066225 198.086574,125.258939 C200.950914,125.433004 203.289403,124.456998 205.918657,126.40901 Z" id="Shape" fill="#472727" fill-rule="nonzero"></path>
                <path d="M177,185 L180.96074,195.758419 L187.814919,215.424884 C187.814919,215.424884 187.882782,215.624924 188,216 L179.362872,186.675338 C178.539562,186.170436 177.750206,185.610762 177,185 Z" id="Shape" fill="#000000" fill-rule="nonzero" opacity="0.1"></path>
                <path d="M135.01503,307.039754 C135.01503,307.039754 134.610704,319.814089 137.996186,323 L147,305.726103 L139.432451,302 L135.01503,307.039754 Z" id="Shape" fill="#FFB9B9" fill-rule="nonzero"></path>
                <path d="M113,311.199121 C117.240662,316.130793 135.682901,317 135.682901,317 L153.964179,288.346985 C153.964179,288.346985 158.297703,285.357158 166.401392,271.906022 C174.505081,258.454886 174.257451,248.086046 173.83029,240.349485 C173.403128,232.612924 168.258616,210.371082 168.258616,210.371082 C167.472391,205.365435 156.087606,174 156.087606,174 C154.892792,176.379532 152.670313,178.358365 150.064008,179.998146 C143.037509,184.38117 133.212792,186.175066 133.212792,186.175066 C117.407813,188.462129 120.323655,204.724318 120.323655,204.724318 C120.323655,204.724318 120.131742,267.95452 121.122261,275.512308 C122.112781,283.070095 113,311.199121 113,311.199121 Z" id="Shape" fill="#000000" fill-rule="nonzero" opacity="0.1"></path>
                <polygon id="Shape" fill="#CBCDDA" fill-rule="nonzero" points="134 309.38695 134.496812 314 140.557917 311.693475 145 304.713202 141.668438 302"></polygon>
                <path d="M135,290.901461 L138.341616,291.265393 L170.574031,294.719432 C175.745448,295.276918 180.965441,295.0026 186.061373,293.905549 L201,290.696336 C200.309482,288.095882 199.766931,286.501201 199.766931,286.501201 C198.151611,287.73195 188.903596,289.147974 184.11929,290.345639 C181.492865,290.990616 178.791782,291.213611 176.104344,291.007332 C163.999403,289.985437 152.023589,287.637442 140.363849,284 L138.908828,285.865975 L135,290.901461 Z" id="Shape" fill="#000000" fill-rule="nonzero" opacity="0.1"></path>
                <g id="Group" opacity="0.1" transform="translate(127.000000, 284.000000)" fill="#000000" fill-rule="nonzero">
                    <path d="M71.9483051,3.24588608 C72.0566194,3.19192799 72.1619415,3.13218956 72.2638136,3.06693038 L72.2947458,3.15332278 L71.9483051,3.24588608 Z" id="Shape"></path>
                    <path d="M3.2540678,124.725949 C3.2540678,124.725949 8.78474576,103.806646 7.01542373,98.6601266 C7.01542373,98.6601266 10.1952542,76.9818038 8.30838983,70.527057 C6.42152542,64.0723101 9.60754237,16.4392405 9.60754237,16.4392405 L10.6530508,7.50996835 L11.2716949,2.47452532 L11.5191525,0.364082278 C11.5191525,0.364082278 11.9398305,0.499841772 12.7564407,0.734335443 L13.505,0.956487342 L13.3317797,1.78338608 L12.7440678,6.81882911 L11.6985593,15.7481013 C11.6985593,15.7481013 8.52491525,63.375 10.3994068,69.8359177 C12.2738983,76.2968354 9.11262712,97.9689873 9.11262712,97.9689873 C10.8757627,103.115506 5.35127119,124.03481 5.35127119,124.03481 C5.35127119,124.03481 1.46618644,151.964241 2.5240678,159.825949 C3.58194915,167.687658 4.99864407,189.625158 4.99864407,189.625158 C8.60533898,195.030854 15.4166102,194.352057 18.8191525,193.593038 C18.7820339,193.685601 18.7572881,193.734968 18.7572881,193.734968 C18.7572881,193.734968 7.81966102,197.721361 2.87669492,190.33481 C2.87669492,190.33481 1.46618644,168.391139 0.402118644,160.52943 C-0.661949153,152.667722 3.2540678,124.725949 3.2540678,124.725949 Z" id="Shape"></path>
                    <path d="M31.1301695,160.04193 C29.2742373,154.765823 32.8994915,137.75269 32.8994915,137.75269 C32.8994915,137.75269 39.3581356,119.567089 38.3002542,106.071361 C37.8610169,100.449684 37.8919492,92.7360759 38.0775424,85.6457278 C39.5808475,76.5128165 41.0099153,66.3 41.0099153,66.3 C41.0099153,66.3 39.3581356,91.8721519 40.4222034,105.36788 C41.4862712,118.863608 35.0152542,137.049209 35.0152542,137.049209 C35.0152542,137.049209 31.3652542,154.062342 33.2521186,159.338449 C35.1389831,164.614557 28.5442373,186.440981 28.5442373,186.440981 C29.0144068,191.51962 41.1027119,190.871677 45.8662712,190.408861 L45.6868644,190.896361 C45.6868644,190.896361 26.9852542,193.481962 26.4037288,187.144462 C26.4284746,187.144462 33.0108475,165.311867 31.1301695,160.04193 Z" id="Shape"></path>
                </g>
                <path d="M112,311.199121 C116.240618,316.130793 134.682664,317 134.682664,317 L152.957562,288.346985 C152.957562,288.346985 157.29104,285.357158 165.400835,271.906022 C173.510631,258.454886 173.256812,248.086046 172.829655,240.349485 C172.402498,232.612924 167.25804,210.371082 167.25804,210.371082 C166.471823,205.365435 155.087157,174 155.087157,174 C153.892355,176.379532 151.669899,178.358365 149.063622,179.998146 C142.031005,184.38117 132.218772,186.175066 132.218772,186.175066 C116.413957,188.462129 119.329769,204.724318 119.329769,204.724318 C119.329769,204.724318 119.15643,267.929862 120.128367,275.487649 C121.100305,283.045437 112,311.199121 112,311.199121 Z" id="Shape" fill="#4C4C78" fill-rule="nonzero"></path>
                <path d="M151.706955,189.693301 L155.7205,191.199758 L153.044803,193.067267 L173,241 C172.53738,233.187587 167.373535,210.727678 167.373535,210.727678 C166.579578,205.672954 155.082834,174 155.082834,174 C153.87627,176.402862 151.631935,178.401096 149,180.056954 L151.706955,189.693301 Z" id="Shape" fill="#000000" fill-rule="nonzero" opacity="0.1"></path>
                <polygon id="Shape" fill="#000000" fill-rule="nonzero" opacity="0.1" points="148 275.111267 127.664862 270 125 278.058906 145.777206 283"></polygon>
                <path d="M136.276355,193.166505 C136.276355,193.166505 145.485129,201.775946 142.032615,220.876604 C138.580101,239.977262 133.003918,260.77521 133.003918,260.77521 L148,301.903736 C148,301.903736 137.549314,312.690135 132.41401,314 L117.448976,281.118088 C117.448976,281.118088 110.457014,269.716729 112.313672,251.833691 C114.17033,233.950654 120.90149,205.004486 120.90149,205.004486 C120.90149,205.004486 120.870442,187.379732 136.276355,193.166505 Z" id="Shape" fill="#000000" fill-rule="nonzero" opacity="0.1"></path>
                <path d="M136.324018,193.166505 C136.324018,193.166505 145.53438,201.775946 142.081271,220.876604 C138.628161,239.977262 133.051016,260.77521 133.051016,260.77521 L148,301.903736 C148,301.903736 137.566143,312.690135 132.417532,314 L117.449916,281.118088 C117.449916,281.118088 110.456748,269.716729 112.313726,251.833691 C114.170704,233.950654 120.903026,205.004486 120.903026,205.004486 C120.903026,205.004486 120.903026,187.379732 136.324018,193.166505 Z" id="Shape" fill="#4C4C78" fill-rule="nonzero"></path>
                <path d="M145.747964,303.064944 C145.747964,303.064944 134.167824,319.075967 135.047718,323.386627 C135.927612,327.697287 139.317972,325.375689 139.317972,325.375689 L143.902033,319.106758 L148,307.406395 C148,307.406395 147.593895,302.375239 145.747964,303.064944 Z" id="Shape" fill="#000000" fill-rule="nonzero" opacity="0.1"></path>
                <path d="M147.774512,303.064872 C147.774512,303.064872 136.16622,319.075945 137.047785,323.386619 C137.929349,327.697293 141.326146,325.375687 141.326146,325.375687 L145.894252,319.112894 L150,307.412494 C150,307.412494 149.599289,302.375164 147.774512,303.064872 Z" id="Shape" fill="#000000" fill-rule="nonzero" opacity="0.1"></path>
                <path d="M146.768352,303.064872 C146.768352,303.064872 135.166246,319.075945 136.047809,323.386619 C136.929371,327.697293 140.326162,325.375687 140.326162,325.375687 L144.89426,319.112894 L149,307.412494 C149,307.412494 148.59929,302.375164 146.768352,303.064872 Z" id="Shape" fill="#474463" fill-rule="nonzero"></path>
            </g>
        </g>
    </g>
</svg>